<?xml version="1.0" encoding="utf-8"?>
<!-- Generator: Adobe Illustrator 21.0.2, SVG Export Plug-In . SVG Version: 6.00 Build 0)  -->
<svg version="1.1" id="Layer_1" xmlns="http://www.w3.org/2000/svg" xmlns:xlink="http://www.w3.org/1999/xlink" x="0px" y="0px"
	 viewBox="0 0 400 400" style="enable-background:new 0 0 400 400;" xml:space="preserve">
<style type="text/css">
	.st0{fill:#3185FC;}
	.st1{fill:#F7BD69;}
	.st2{fill:#A1D542;}
	.st3{fill:none;}
	.st4{fill:#EDF8FF;}
	.st5{font-family:'MyriadPro-Regular';}
	.st6{font-size:29.8802px;}
</style>
<g>
	<g>
		<path class="st0" d="M190.1,259c-0.1,0.1-0.1,0.1-0.2,0.2c20.8-20.3,49.2-32.8,80.6-32.8c13.1,0,25.7,2.2,37.5,6.2
			c3.1-10.5,4.8-21.6,4.8-33.1c0-63.8-51.7-115.5-115.5-115.5S81.9,135.7,81.9,199.5c0,4.9,0.3,9.7,0.9,14.4c4.9-0.6,9.9-1,15-1
			C135.6,212.9,169.1,231,190.1,259z"/>
		<path class="st1" d="M159.9,308.7c0-0.1,0-0.1,0.1-0.2c0.6-2.1,1.3-4.1,2.1-6.2c0-0.1,0.1-0.2,0.1-0.3c0.2-0.6,0.4-1.2,0.7-1.8
			c0.1-0.2,0.2-0.4,0.2-0.6c0.2-0.6,0.4-1.1,0.7-1.7c0.1-0.2,0.2-0.4,0.3-0.6c0.7-1.8,1.5-3.6,2.4-5.3c0.1-0.2,0.2-0.5,0.3-0.7
			c0.2-0.5,0.5-0.9,0.7-1.4c0.2-0.3,0.3-0.6,0.5-0.9c0.2-0.4,0.5-0.9,0.7-1.3c0.2-0.3,0.4-0.7,0.5-1c0.2-0.4,0.5-0.8,0.7-1.2
			c0.2-0.4,0.5-0.8,0.7-1.2c0.3-0.6,0.7-1.2,1-1.8c0.3-0.4,0.5-0.8,0.8-1.3c0.2-0.3,0.4-0.7,0.6-1c0.3-0.4,0.5-0.8,0.8-1.2
			c0.2-0.3,0.4-0.6,0.6-1c0.3-0.4,0.6-0.9,0.9-1.3c0.2-0.3,0.4-0.5,0.6-0.8c0.5-0.7,0.9-1.3,1.4-2c0.1-0.1,0.1-0.2,0.2-0.2
			c0.5-0.7,1-1.3,1.5-2c0.2-0.2,0.3-0.4,0.5-0.6c0.4-0.5,0.8-1,1.2-1.5c0.2-0.2,0.3-0.4,0.5-0.6c0.4-0.5,0.8-1,1.3-1.5
			c0.1-0.2,0.3-0.3,0.4-0.5c1.2-1.4,2.3-2.7,3.6-4c0.1-0.1,0.2-0.2,0.3-0.3c0.5-0.6,1-1.1,1.6-1.6c0.1-0.1,0.3-0.3,0.4-0.4
			c0.5-0.5,1.1-1.1,1.6-1.6c0.1-0.1,0.1-0.1,0.2-0.2c-21.1-28-54.6-46.1-92.3-46.1c-5.1,0-10.1,0.3-15,1
			C88.3,258.2,118.9,294.6,159.9,308.7z"/>
		<path class="st2" d="M189.8,314.5l0,0.1c2.5,0.2,5.1,0.3,7.7,0.3c52.3,0,96.4-34.7,110.6-82.4c-11.8-4-24.4-6.2-37.5-6.2
			c-31.4,0-59.8,12.5-80.6,32.8c-0.5,0.5-1.1,1.1-1.6,1.6c-0.1,0.1-0.3,0.3-0.4,0.4c-0.5,0.5-1.1,1.1-1.6,1.6
			c-0.1,0.1-0.2,0.2-0.3,0.3c-1.2,1.3-2.4,2.6-3.6,4c-0.1,0.2-0.3,0.3-0.4,0.5c-0.4,0.5-0.8,1-1.3,1.5c-0.2,0.2-0.3,0.4-0.5,0.6
			c-0.4,0.5-0.8,1-1.2,1.5c-0.2,0.2-0.3,0.4-0.5,0.6c-0.5,0.6-1,1.3-1.5,2c-0.1,0.1-0.1,0.2-0.2,0.2c-0.5,0.7-0.9,1.3-1.4,2
			c-0.2,0.3-0.4,0.5-0.6,0.8c-0.3,0.4-0.6,0.9-0.9,1.3c-0.2,0.3-0.4,0.6-0.6,1c-0.3,0.4-0.5,0.8-0.8,1.2c-0.2,0.3-0.4,0.7-0.6,1
			c-0.3,0.4-0.5,0.8-0.8,1.3c-0.4,0.6-0.7,1.2-1,1.8c-0.2,0.4-0.5,0.8-0.7,1.2c-0.2,0.4-0.5,0.8-0.7,1.2c-0.2,0.3-0.4,0.7-0.5,1
			c-0.2,0.4-0.5,0.9-0.7,1.3c-0.2,0.3-0.3,0.6-0.5,0.9c-0.2,0.5-0.5,0.9-0.7,1.4c-0.1,0.2-0.2,0.5-0.3,0.7c-0.8,1.7-1.6,3.5-2.4,5.3
			c-0.1,0.2-0.2,0.4-0.3,0.6c-0.2,0.6-0.5,1.1-0.7,1.7c-0.1,0.2-0.2,0.4-0.2,0.6c-0.2,0.6-0.5,1.2-0.7,1.8c0,0.1-0.1,0.2-0.1,0.3
			c-0.7,2-1.4,4.1-2.1,6.2c0,0.1,0,0.1-0.1,0.2c9.4,3.2,19.4,5.3,29.8,5.9L189.8,314.5z"/>
	</g>
	<rect x="96.3" y="163.7" class="st3" width="205.4" height="30.8"/>
	<text transform="matrix(1 0 0 1 103.5498 184.8872)" class="st4 st5 st6">CultureSmooth</text>
</g>
</svg>
