<svg id="Layer_1" data-name="Layer 1" xmlns="http://www.w3.org/2000/svg" viewBox="0 0 241.93 241.93"><defs><style>.cls-1{fill:#4e7cbf;}.cls-2{fill:#f7bd69;}.cls-3{fill:#a2cd44;}.cls-4{font-size:43.76px;}.cls-4,.cls-7{fill:#edf8fe;font-family:MyriadPro-Regular, Myriad Pro;}.cls-5{letter-spacing:0.01em;}.cls-6{letter-spacing:-0.03em;}.cls-7{font-size:19.76px;}.cls-8{letter-spacing:-0.01em;}.cls-9{letter-spacing:0em;}.cls-10{letter-spacing:0em;}.cls-11{letter-spacing:-0.01em;}</style></defs><title>std5_logo</title><path class="cls-1" d="M471.29,232.3l-.19.19a121.09,121.09,0,0,1,123.71-27.84,121,121,0,1,0-235.94-19.58,122.09,122.09,0,0,1,15.75-1A120.78,120.78,0,0,1,471.29,232.3Z" transform="translate(-357.93 -49)"/><path class="cls-2" d="M439.63,284.41l.07-.22q1-3.27,2.15-6.47l.11-.3q.34-.93.7-1.85l.25-.65q.35-.88.7-1.75l.27-.65q1.17-2.81,2.49-5.55l.35-.73c.24-.49.49-1,.73-1.48l.48-.95.72-1.38.56-1,.72-1.31.72-1.26q.54-.94,1.1-1.87l.8-1.32.66-1.05.81-1.27.66-1,.92-1.37.59-.86q.73-1,1.47-2.07l.17-.24q.75-1,1.53-2l.49-.64,1.22-1.55.53-.66,1.32-1.6.42-.5q1.81-2.13,3.72-4.18l.28-.3q.82-.87,1.65-1.73l.4-.4q.84-.85,1.7-1.69l.19-.19A120.78,120.78,0,0,0,374.62,184a122.09,122.09,0,0,0-15.75,1A121.09,121.09,0,0,0,439.63,284.41Z" transform="translate(-357.93 -49)"/><path class="cls-3" d="M470.89,290.52v.13c2.66.17,5.33.29,8,.29a121,121,0,0,0,115.91-86.29,121.09,121.09,0,0,0-123.71,27.84q-.86.84-1.7,1.69l-.4.4q-.84.86-1.65,1.73l-.28.3q-1.91,2-3.72,4.18l-.42.5-1.32,1.6-.53.66-1.22,1.55-.49.64q-.77,1-1.53,2l-.17.24q-.75,1-1.47,2.07l-.59.86-.92,1.37-.66,1-.81,1.27-.66,1.05-.8,1.32q-.56.93-1.1,1.87l-.72,1.26-.72,1.31-.56,1-.72,1.38-.48.95c-.25.49-.49,1-.73,1.48l-.35.73q-1.31,2.74-2.49,5.55l-.27.65q-.36.87-.7,1.75l-.25.65c-.24.62-.47,1.23-.7,1.85l-.11.3q-1.16,3.19-2.15,6.47l-.07.23a120.53,120.53,0,0,0,31.24,6.23Z" transform="translate(-357.93 -49)"/><text class="cls-4" transform="translate(28.99 97.22)"><tspan class="cls-5">M</tspan><tspan x="35.45" y="0">ai</tspan><tspan class="cls-6" x="66.78" y="0">V</tspan><tspan x="89.75" y="0">ennu</tspan></text><text class="cls-7" transform="translate(76.28 125.18)">(<tspan class="cls-8" x="5.61" y="0">m</tspan><tspan class="cls-9" x="21.84" y="0">y</tspan><tspan class="cls-10" x="31.07" y="0">-</tspan><tspan class="cls-11" x="37.03" y="0">v</tspan><tspan x="46.34" y="0">en-u)</tspan></text></svg>